<svg width="144" height="144" viewBox="0 0 144 144" fill="none" xmlns="http://www.w3.org/2000/svg" xmlns:xlink="http://www.w3.org/1999/xlink">
<path d="M132.225,90.552C135.399,62.06 120.772,37.78 99.555,36.322C78.336,34.865 58.562,56.781 55.388,85.273C52.214,113.765 66.841,138.044 88.059,139.502C109.276,140.96 129.051,119.044 132.225,90.552Z" fill="#D04B06"/>
<path d="M143.527,90.551C146.701,62.059 132.074,37.78 110.856,36.322C89.638,34.864 69.864,56.78 66.69,85.272C63.516,113.764 78.143,138.043 99.361,139.501C120.578,140.959 140.352,119.043 143.527,90.551Z" fill="#C65C14"/>
<path d="M56.001,139.502C77.219,138.044 91.847,113.765 88.673,85.273C85.498,56.781 65.724,34.865 44.506,36.322C23.289,37.78 8.661,62.06 11.836,90.552C15.01,119.044 34.784,140.96 56.001,139.502Z" fill="#D04B06"/>
<path d="M44.703,139.501C65.921,138.044 80.548,113.764 77.374,85.272C74.199,56.78 54.425,34.864 33.208,36.322C11.99,37.779 -2.638,62.059 0.537,90.551C3.711,119.043 23.485,140.959 44.703,139.501Z" fill="#C65C14"/>
<path d="M143.426,94.498C146.6,66.006 131.973,41.727 110.755,40.269C89.537,38.812 69.763,60.727 66.589,89.22C63.414,117.712 78.041,141.991 99.259,143.448C120.477,144.906 140.251,122.99 143.426,94.498Z" fill="#F17008"/>
<path d="M55.101,53.58L53.617,42.946C53.617,42.946 54.434,37.261 69.344,36.446C84.255,35.632 62.486,10.363 62.486,10.363C62.486,10.363 67.492,-3.751 75.705,1.271C83.918,6.292 84.247,35.63 84.247,35.63C84.247,35.63 89.544,46.669 90.088,50.57Z" fill="#8F6646"/>
<path d="M132.123,94.499C135.298,66.007 120.671,41.728 99.453,40.27C78.235,38.812 58.461,60.728 55.287,89.22C52.112,117.712 66.739,141.992 87.957,143.449C109.176,144.907 128.949,122.991 132.123,94.499Z" fill="#F48D39"/>
<path d="M44.6,143.449C65.817,141.991 80.445,117.712 77.27,89.22C74.096,60.727 54.322,38.812 33.104,40.27C11.887,41.727 -2.741,66.006 0.434,94.499C3.608,122.991 23.381,144.906 44.6,143.449Z" fill="#F17008"/>
<path d="M55.901,143.45C77.119,141.992 91.746,117.713 88.571,89.22C85.397,60.728 65.624,38.812 44.406,40.27C23.188,41.728 8.561,66.007 11.735,94.499C14.909,122.991 34.684,144.907 55.901,143.45Z" fill="#F48D39"/>
<path d="M69.32,143.646C90.619,143.646 107.885,120.46 107.885,91.859C107.885,63.258 90.619,40.073 69.32,40.073C48.021,40.073 30.755,63.258 30.755,91.859C30.755,120.46 48.021,143.646 69.32,143.646Z" fill="#F17008"/>
</svg>
