<svg width="40" height="40" viewBox="0 0 40 40" fill="none" xmlns="http://www.w3.org/2000/svg" xmlns:xlink="http://www.w3.org/1999/xlink">
<path d="M22.056,0.002C23.515,-0.004 24.975,0.011 26.434,0.046L26.822,0.06C27.27,0.076 27.712,0.096 28.246,0.12C30.374,0.22 31.826,0.556 33.1,1.05C34.42,1.558 35.532,2.246 36.644,3.358C37.661,4.357 38.448,5.566 38.95,6.9C39.444,8.174 39.78,9.628 39.88,11.756C39.904,12.288 39.924,12.732 39.94,13.18L39.952,13.568C39.987,15.026 40.003,16.485 39.998,17.944L40,19.436L40,22.056C40.005,23.516 39.99,24.975 39.954,26.434L39.942,26.822C39.926,27.27 39.906,27.712 39.882,28.246C39.782,30.374 39.442,31.826 38.95,33.1C38.449,34.436 37.662,35.645 36.644,36.644C35.644,37.661 34.435,38.448 33.1,38.95C31.826,39.444 30.374,39.78 28.246,39.88C27.712,39.904 27.27,39.924 26.822,39.94L26.434,39.952C24.975,39.988 23.515,40.003 22.056,39.998L20.564,40L17.946,40C16.487,40.005 15.027,39.99 13.568,39.954L13.18,39.942C12.705,39.925 12.231,39.905 11.756,39.882C9.628,39.782 8.176,39.442 6.9,38.95C5.565,38.449 4.356,37.662 3.358,36.644C2.34,35.645 1.552,34.435 1.05,33.1C0.556,31.826 0.22,30.374 0.12,28.246C0.098,27.771 0.078,27.297 0.06,26.822L0.05,26.434C0.013,24.975 -0.004,23.516 0,22.056L0,17.944C-0.006,16.485 0.009,15.026 0.044,13.568L0.058,13.18C0.074,12.732 0.094,12.288 0.118,11.756C0.218,9.626 0.554,8.176 1.048,6.9C1.551,5.565 2.34,4.357 3.36,3.36C4.358,2.341 5.566,1.553 6.9,1.05C8.176,0.556 9.626,0.22 11.756,0.12L13.18,0.06L13.568,0.05C15.026,0.013 16.485,-0.004 17.944,0L22.056,0.002ZM20,10.002C18.675,9.983 17.36,10.228 16.13,10.722C14.9,11.216 13.781,11.95 12.838,12.88C11.894,13.81 11.145,14.919 10.633,16.141C10.122,17.364 9.859,18.676 9.859,20.001C9.859,21.326 10.122,22.638 10.633,23.861C11.145,25.083 11.894,26.192 12.838,27.122C13.781,28.052 14.9,28.786 16.13,29.28C17.36,29.774 18.675,30.019 20,30C22.652,30 25.196,28.946 27.071,27.071C28.946,25.196 30,22.652 30,20C30,17.348 28.946,14.804 27.071,12.929C25.196,11.054 22.652,10.002 20,10.002ZM20,14.002C20.797,13.987 21.589,14.132 22.33,14.426C23.07,14.721 23.745,15.161 24.314,15.719C24.882,16.277 25.334,16.944 25.643,17.679C25.951,18.414 26.11,19.203 26.11,20C26.111,20.797 25.952,21.586 25.644,22.321C25.335,23.057 24.884,23.723 24.315,24.282C23.746,24.84 23.072,25.28 22.331,25.575C21.591,25.87 20.799,26.014 20.002,26C18.411,26 16.885,25.368 15.759,24.243C14.634,23.117 14.002,21.591 14.002,20C14.002,18.409 14.634,16.883 15.759,15.757C16.885,14.632 18.411,14 20.002,14L20,14.002ZM30.5,7.002C29.855,7.028 29.245,7.302 28.797,7.768C28.35,8.234 28.1,8.854 28.1,9.5C28.1,10.146 28.35,10.766 28.797,11.232C29.245,11.698 29.855,11.972 30.5,11.998C31.163,11.998 31.799,11.735 32.268,11.266C32.737,10.797 33,10.161 33,9.498C33,8.835 32.737,8.199 32.268,7.73C31.799,7.261 31.163,6.998 30.5,6.998L30.5,7.002Z" fill="#FCC21B"/>
</svg>
