<svg width="40" height="46" viewBox="0 0 40 46" fill="none" xmlns="http://www.w3.org/2000/svg" xmlns:xlink="http://www.w3.org/1999/xlink">
<path d="M34.642,9.124C34.338,8.967 34.043,8.795 33.756,8.608C32.923,8.057 32.16,7.409 31.482,6.676C29.784,4.734 29.15,2.764 28.918,1.386L28.926,1.386C28.732,0.24 28.812,-0.5 28.826,-0.5L21.096,-0.5L21.096,29.386C21.096,29.786 21.096,30.184 21.08,30.576C21.08,30.624 21.074,30.668 21.072,30.722C21.072,30.742 21.072,30.766 21.066,30.788L21.066,30.806C20.985,31.878 20.642,32.914 20.066,33.822C19.491,34.73 18.701,35.483 17.766,36.014C16.791,36.569 15.688,36.86 14.566,36.858C10.966,36.858 8.046,33.922 8.046,30.296C8.046,26.668 10.966,23.732 14.566,23.732C15.248,23.732 15.926,23.84 16.574,24.052L16.584,16.18C14.616,15.926 12.617,16.083 10.713,16.641C8.808,17.198 7.04,18.145 5.52,19.42C4.188,20.577 3.068,21.958 2.21,23.5C1.884,24.062 0.652,26.324 0.504,29.992C0.41,32.072 1.036,34.232 1.334,35.122L1.334,35.142C1.52,35.666 2.248,37.458 3.432,38.968C4.387,40.18 5.515,41.245 6.78,42.128L6.78,42.108L6.798,42.128C10.538,44.668 14.688,44.502 14.688,44.502C15.406,44.472 17.812,44.502 20.544,43.208C23.574,41.772 25.298,39.634 25.298,39.634C26.4,38.356 27.277,36.9 27.89,35.328C28.59,33.488 28.822,31.284 28.822,30.404L28.822,14.546C28.916,14.602 30.166,15.428 30.166,15.428C30.166,15.428 31.966,16.582 34.772,17.332C36.784,17.866 39.498,17.98 39.498,17.98L39.498,10.306C38.548,10.41 36.618,10.11 34.64,9.126L34.642,9.124Z" fill="#FCC21B"/>
</svg>
