<svg width="22" height="38" viewBox="0 0 22 38" fill="none" xmlns="http://www.w3.org/2000/svg" xmlns:xlink="http://www.w3.org/1999/xlink">
<path d="M14.4,-0.25C11.947,-0.25 9.594,0.725 7.859,2.459C6.125,4.194 5.15,6.547 5.15,9L5.15,14.15L0.2,14.15C-0.048,14.15 -0.25,14.35 -0.25,14.6L-0.25,21.4C-0.25,21.648 -0.05,21.85 0.2,21.85L5.15,21.85L5.15,35.8C5.15,36.048 5.35,36.25 5.6,36.25L12.4,36.25C12.648,36.25 12.85,36.05 12.85,35.8L12.85,21.85L17.844,21.85C18.05,21.85 18.23,21.71 18.28,21.51L19.98,14.71C19.997,14.644 19.998,14.574 19.984,14.507C19.97,14.44 19.941,14.378 19.899,14.324C19.857,14.27 19.803,14.226 19.741,14.196C19.68,14.166 19.612,14.15 19.544,14.15L12.85,14.15L12.85,9C12.85,8.796 12.89,8.595 12.968,8.407C13.046,8.219 13.16,8.048 13.304,7.904C13.448,7.76 13.619,7.646 13.807,7.568C13.995,7.49 14.196,7.45 14.4,7.45L19.6,7.45C19.848,7.45 20.05,7.25 20.05,7L20.05,0.2C20.05,-0.048 19.85,-0.25 19.6,-0.25L14.4,-0.25Z" fill="#FCC21B"/>
</svg>
