<svg width="62" height="70" viewBox="0 0 62 70" fill="none" xmlns="http://www.w3.org/2000/svg" xmlns:xlink="http://www.w3.org/1999/xlink">
<path d="M30.017,-0.667C32.205,-0.667 34.373,-0.236 36.395,0.602C38.417,1.44 40.254,2.667 41.802,4.215C43.35,5.763 44.577,7.6 45.415,9.622C46.252,11.644 46.683,13.811 46.683,16L46.683,22.667L56.683,22.667C57.568,22.667 58.415,23.018 59.04,23.643C59.666,24.268 60.017,25.116 60.017,26L60.017,66C60.017,66.884 59.666,67.732 59.04,68.357C58.415,68.982 57.568,69.333 56.683,69.333L3.35,69.333C2.466,69.333 1.618,68.982 0.993,68.357C0.368,67.732 0.017,66.884 0.017,66L0.017,26C0.017,25.116 0.368,24.268 0.993,23.643C1.618,23.018 2.466,22.667 3.35,22.667L13.35,22.667L13.35,16C13.35,11.58 15.106,7.341 18.232,4.215C21.357,1.089 25.597,-0.667 30.017,-0.667ZM46.683,32.667L40.017,32.667L40.017,36C40.019,36.849 40.344,37.666 40.928,38.283C41.511,38.9 42.309,39.271 43.156,39.321C44.004,39.37 44.839,39.094 45.49,38.549C46.141,38.003 46.56,37.23 46.66,36.387L46.683,35.997L46.683,32.663L46.683,32.667ZM20.017,32.667L13.35,32.667L13.35,36C13.352,36.849 13.678,37.666 14.261,38.283C14.845,38.9 15.642,39.271 16.49,39.321C17.338,39.37 18.172,39.094 18.823,38.549C19.475,38.003 19.893,37.23 19.993,36.387L20.017,36L20.017,32.667ZM30.017,6C27.467,6 25.013,6.974 23.157,8.723C21.301,10.472 20.184,12.864 20.033,15.41L20.017,16L20.017,22.667L40.017,22.667L40.017,16C40.017,13.449 39.042,10.995 37.293,9.139C35.543,7.283 33.15,6.166 30.603,6.017L30.017,6Z" fill="#FCC21B"/>
</svg>
